<?xml version="1.0" encoding="UTF-8"?>
<!DOCTYPE svg PUBLIC "-//W3C//DTD SVG 1.1//EN" "http://www.w3.org/Graphics/SVG/1.1/DTD/svg11.dtd">
<svg xmlns="http://www.w3.org/2000/svg" version="1.1" width="256px" height="256px" style="shape-rendering:geometricPrecision; text-rendering:geometricPrecision; image-rendering:optimizeQuality; fillRule:evenodd; clipRule:evenodd" xmlnsXlink="http://www.w3.org/1999/xlink">
<g><path style="opacity:0.994" fill="#5e7e81" d="M 7.5,-0.5 C 10.8333,-0.5 14.1667,-0.5 17.5,-0.5C 14.2972,1.18562 11.4639,3.51895 9,6.5C 8.33333,65.5 8.33333,124.5 9,183.5C 10.0043,189.669 13.5043,193.336 19.5,194.5C 11.2501,196.087 4.58341,193.753 -0.5,187.5C -0.5,127.167 -0.5,66.8333 -0.5,6.5C 1.54906,3.45031 4.21573,1.11698 7.5,-0.5 Z"/></g>
<g><path style="opacity:0.989" fill="#688f92" d="M 17.5,-0.5 C 94.1667,-0.5 170.833,-0.5 247.5,-0.5C 250.784,1.11698 253.451,3.45031 255.5,6.5C 255.5,66.8333 255.5,127.167 255.5,187.5C 253.279,190.623 250.279,192.789 246.5,194C 215.502,194.5 184.502,194.667 153.5,194.5C 136.167,193.167 118.833,193.167 101.5,194.5C 74.1667,194.5 46.8333,194.5 19.5,194.5C 13.5043,193.336 10.0043,189.669 9,183.5C 8.33333,124.5 8.33333,65.5 9,6.5C 11.4639,3.51895 14.2972,1.18562 17.5,-0.5 Z"/></g>
<g><path style="opacity:1" fill="#4cafd7" d="M 30.5,18.5 C 29.5423,19.9616 28.3756,21.2949 27,22.5C 26.5,66.8321 26.3333,111.165 26.5,155.5C 23.8333,155.5 21.1667,155.5 18.5,155.5C 18.3333,110.832 18.5,66.1654 19,21.5C 19.8333,20.6667 20.6667,19.8333 21.5,19C 24.4816,18.502 27.4816,18.3354 30.5,18.5 Z"/></g>
<g><path style="opacity:1" fill="#55caf8" d="M 30.5,18.5 C 98.1675,18.3333 165.834,18.5 233.5,19C 234.333,19.8333 235.167,20.6667 236,21.5C 236.5,66.1654 236.667,110.832 236.5,155.5C 171.167,155.5 105.833,155.5 40.5,155.5C 35.8333,155.5 31.1667,155.5 26.5,155.5C 26.3333,111.165 26.5,66.8321 27,22.5C 28.3756,21.2949 29.5423,19.9616 30.5,18.5 Z"/></g>
<g><path style="opacity:1" fill="#a7e1ef" d="M 37.5,33.5 C 97.5009,33.3333 157.501,33.5 217.5,34C 219,34.8333 220.167,36 221,37.5C 221.667,47.1667 221.667,56.8333 221,66.5C 220.426,68.492 219.259,69.992 217.5,71C 157.5,71.6667 97.5,71.6667 37.5,71C 35.4616,69.764 34.2949,67.9306 34,65.5C 33.3333,56.5 33.3333,47.5 34,38.5C 34.6972,36.4156 35.8639,34.7489 37.5,33.5 Z"/></g>
<g><path style="opacity:1" fill="#a5e1ef" d="M 124.5,82.5 C 156.835,82.3334 189.168,82.5 221.5,83C 223.994,85.4231 223.994,87.7564 221.5,90C 188.833,90.6667 156.167,90.6667 123.5,90C 122.083,87.2565 122.416,84.7565 124.5,82.5 Z"/></g>
<g><path style="opacity:1" fill="#edd661" d="M 38.5,86.5 C 61.5658,86.031 84.5658,86.531 107.5,88C 108.333,88.8333 109.167,89.6667 110,90.5C 110.968,106.259 110.635,121.926 109,137.5C 108.5,138 108,138.5 107.5,139C 95.8333,139.167 84.1667,139.333 72.5,139.5C 60.0748,139.648 47.7415,139.148 35.5,138C 34.8095,136.933 34.3095,135.766 34,134.5C 33.3333,120.167 33.3333,105.833 34,91.5C 35.1932,89.5029 36.6932,87.8362 38.5,86.5 Z"/></g>
<g><path style="opacity:1" fill="#a7e1ef" d="M 124.5,100.5 C 156.835,100.333 189.168,100.5 221.5,101C 224.167,103.333 224.167,105.667 221.5,108C 189.167,108.667 156.833,108.667 124.5,108C 121.914,105.506 121.914,103.006 124.5,100.5 Z"/></g>
<g><path style="opacity:1" fill="#a7e1ef" d="M 124.5,118.5 C 156.835,118.333 189.168,118.5 221.5,119C 224.167,121.333 224.167,123.667 221.5,126C 189.167,126.667 156.833,126.667 124.5,126C 121.914,123.506 121.914,121.006 124.5,118.5 Z"/></g>
<g><path style="opacity:1" fill="#a5e1ef" d="M 123.5,136.5 C 156.168,136.333 188.835,136.5 221.5,137C 223.994,139.244 223.994,141.577 221.5,144C 189.167,144.667 156.833,144.667 124.5,144C 122.285,141.758 121.952,139.258 123.5,136.5 Z"/></g>
<g><path style="opacity:1" fill="#d9dcdd" d="M 40.5,155.5 C 105.833,155.5 171.167,155.5 236.5,155.5C 236.666,160.844 236.499,166.177 236,171.5C 235.348,173.723 233.848,174.89 231.5,175C 167.834,175.5 104.168,175.667 40.5,175.5C 40.5,168.833 40.5,162.167 40.5,155.5 Z"/></g>
<g><path style="opacity:1" fill="#da4c4b" d="M 18.5,155.5 C 21.1667,155.5 23.8333,155.5 26.5,155.5C 31.1667,155.5 35.8333,155.5 40.5,155.5C 40.5,162.167 40.5,168.833 40.5,175.5C 40.1667,175.5 39.8333,175.5 39.5,175.5C 39.5,169.167 39.5,162.833 39.5,156.5C 35.1667,156.5 30.8333,156.5 26.5,156.5C 26.3343,160.846 26.501,165.179 27,169.5C 27.5637,171.887 28.7304,173.887 30.5,175.5C 26.7432,175.929 23.2432,175.263 20,173.5C 18.5899,167.621 18.0899,161.621 18.5,155.5 Z"/></g>
<g><path style="opacity:1" fill="#f54747" d="M 39.5,175.5 C 36.5,175.5 33.5,175.5 30.5,175.5C 28.7304,173.887 27.5637,171.887 27,169.5C 26.501,165.179 26.3343,160.846 26.5,156.5C 30.8333,156.5 35.1667,156.5 39.5,156.5C 39.5,162.833 39.5,169.167 39.5,175.5 Z"/></g>
<g><path style="opacity:1" fill="#537273" d="M 153.5,194.5 C 153.5,209.167 153.5,223.833 153.5,238.5C 136.167,238.5 118.833,238.5 101.5,238.5C 101.5,223.833 101.5,209.167 101.5,194.5C 118.833,193.167 136.167,193.167 153.5,194.5 Z"/></g>
<g><path style="opacity:0.978" fill="#688e92" d="M 101.5,238.5 C 118.833,238.5 136.167,238.5 153.5,238.5C 162.608,238.057 171.608,238.557 180.5,240C 185.544,245.758 184.877,250.925 178.5,255.5C 144.5,255.5 110.5,255.5 76.5,255.5C 69.1792,250.395 68.8459,244.895 75.5,239C 84.1603,238.5 92.8269,238.334 101.5,238.5 Z"/></g>
</svg>
