<?xml version="1.0" encoding="UTF-8"?>
<!DOCTYPE svg PUBLIC "-//W3C//DTD SVG 1.1//EN" "http://www.w3.org/Graphics/SVG/1.1/DTD/svg11.dtd">
<svg xmlns="http://www.w3.org/2000/svg" version="1.1" width="512px" height="512px" style="shape-rendering:geometricPrecision; text-rendering:geometricPrecision; image-rendering:optimizeQuality; fillRule:evenodd; clipRule:evenodd" xmlnsXlink="http://www.w3.org/1999/xlink">
<g><path style="opacity:0.999" fill="#0556ff" d="M 232.5,-0.5 C 247.833,-0.5 263.167,-0.5 278.5,-0.5C 368.145,10.3883 435.645,54.7216 481,132.5C 486.335,142.166 490.835,152.166 494.5,162.5C 493.957,162.56 493.624,162.893 493.5,163.5C 493.879,165.213 494.879,166.213 496.5,166.5C 504.055,188.041 509.055,210.041 511.5,232.5C 511.5,247.5 511.5,262.5 511.5,277.5C 510.527,279.948 510.194,282.615 510.5,285.5C 508.481,286.538 508.147,287.872 509.5,289.5C 503.377,337.385 485.043,379.718 454.5,416.5C 453.293,416.378 452.626,417.378 452.5,419.5C 448.539,425.129 443.873,430.129 438.5,434.5C 437.761,434.369 437.094,434.536 436.5,435C 435.262,435.69 435.262,436.19 436.5,436.5C 433.833,439.833 430.833,442.833 427.5,445.5C 425.5,445.5 424.5,446.5 424.5,448.5C 422.833,449.833 421.167,451.167 419.5,452.5C 416.052,449.067 411.885,445.734 407,442.5C 406.667,442.833 406.333,443.167 406,443.5C 378.608,429.605 351.441,416.105 324.5,403C 325.34,401.334 324.84,401.167 323,402.5C 321.271,399.297 318.604,397.297 315,396.5C 312.511,392.131 310.177,388.131 308,384.5C 306.405,370.556 306.072,356.556 307,342.5C 307.5,340.667 308.667,339.5 310.5,339C 310.167,338.667 309.833,338.333 309.5,338C 311.132,335.035 313.465,332.701 316.5,331C 316.167,330.667 315.833,330.333 315.5,330C 317.487,328.681 318.654,326.848 319,324.5C 320.255,323.789 321.421,322.956 322.5,322C 322.167,321.667 321.833,321.333 321.5,321C 324.911,316.56 327.911,311.726 330.5,306.5C 330.291,305.914 329.957,305.414 329.5,305C 330.659,303.173 331.992,301.507 333.5,300C 333.167,299.667 332.833,299.333 332.5,299C 334.111,294.852 336.111,290.852 338.5,287C 337.366,285.984 337.699,285.317 339.5,285C 338.289,283.887 338.289,282.72 339.5,281.5C 341.583,280.041 343.75,278.708 346,277.5C 346.333,277.833 346.667,278.167 347,278.5C 350.565,274.337 353.731,270.504 356.5,267C 356.835,265.836 356.835,264.503 356.5,263C 357.167,262.667 357.833,262.333 358.5,262C 357.195,247.492 357.195,232.658 358.5,217.5C 357.194,215.185 355.527,212.352 353.5,209C 354.041,206.135 352.707,204.135 349.5,203C 350.446,183.965 350.78,164.965 350.5,146C 348.623,142.155 348.289,138.488 349.5,135C 347.937,130.311 345.937,125.478 343.5,120.5C 343.709,119.914 344.043,119.414 344.5,119C 344.198,117.345 342.864,116.012 340.5,115C 341.634,113.984 341.301,113.317 339.5,113C 340.641,112.259 340.641,111.425 339.5,110.5C 335.245,106.802 331.578,102.636 328.5,98C 324.015,96.0116 320.182,93.1783 317,89.5C 313.76,89.3955 310.76,88.0622 308,85.5C 306.984,86.6341 306.317,86.3008 306,84.5C 305.667,84.8333 305.333,85.1667 305,85.5C 300.862,84.5023 297.195,82.8356 294,80.5C 292.221,81.4791 290.555,81.1458 289,79.5C 287.297,80.7002 285.797,80.3668 284.5,78.5C 281.381,78.2618 278.214,78.2618 275,78.5C 273.289,78.5607 271.956,77.8941 271,76.5C 260.745,76.5786 250.412,76.5786 240,76.5C 239.196,77.8045 238.029,78.4712 236.5,78.5C 232.618,78.263 228.785,78.263 225,78.5C 224.667,79.1667 224.333,79.8333 224,80.5C 222.732,80.3842 221.398,80.0509 220,79.5C 219.667,80.1667 219.333,80.8333 219,81.5C 217,81.5 215,81.5 213,81.5C 212.676,83.5689 211.842,83.9023 210.5,82.5C 209.572,84.3348 208.406,84.6682 207,83.5C 206.683,85.3008 206.016,85.6341 205,84.5C 201.845,86.7464 198.512,88.7464 195,90.5C 194.667,90.1667 194.333,89.8333 194,89.5C 181.16,97.9024 171.327,109.569 164.5,124.5C 164.709,125.086 165.043,125.586 165.5,126C 164.171,129.316 162.838,132.65 161.5,136C 162.061,138.767 161.727,141.601 160.5,144.5C 160.277,163.823 160.61,183.323 161.5,203C 160.672,203.915 159.672,204.581 158.5,205C 158.833,205.333 159.167,205.667 159.5,206C 158.181,208.367 156.181,210.701 153.5,213C 154.683,215.155 154.35,217.155 152.5,219C 153.739,233.799 153.739,248.466 152.5,263C 154.965,267.369 157.965,271.369 161.5,275C 161.167,275.333 160.833,275.667 160.5,276C 161.891,277.65 163.391,278.15 165,277.5C 165.684,278.784 165.517,279.951 164.5,281C 166.294,286.917 168.627,292.584 171.5,298C 170.511,300.23 171.178,302.064 173.5,303.5C 173.291,304.086 172.957,304.586 172.5,305C 176.9,311.864 180.9,318.53 184.5,325C 184.5,326 184.5,327 184.5,328C 188.631,331.922 192.298,336.255 195.5,341C 196.728,353.972 196.728,367.139 195.5,380.5C 194.975,381.192 194.308,381.692 193.5,382C 193.833,382.333 194.167,382.667 194.5,383C 192.692,385.947 191.192,389.114 190,392.5C 188.736,394.607 186.903,395.607 184.5,395.5C 184.649,396.552 184.483,397.552 184,398.5C 183.333,399.833 182.667,399.833 182,398.5C 181.558,400.679 180.558,401.345 179,400.5C 177.057,402.645 174.724,404.312 172,405.5C 170.442,404.655 169.442,405.321 169,407.5C 168.667,407.167 168.333,406.833 168,406.5C 167.082,408.632 165.749,409.299 164,408.5C 163.082,410.632 161.749,411.299 160,410.5C 159.085,411.328 158.419,412.328 158,413.5C 157.667,413.167 157.333,412.833 157,412.5C 152.522,415.08 147.856,418.08 143,421.5C 142,421.5 141,421.5 140,421.5C 136.222,424.496 131.889,427.496 127,430.5C 125.984,429.366 125.317,429.699 125,431.5C 124.667,431.167 124.333,430.833 124,430.5C 123.333,431.833 122.333,432.833 121,433.5C 120,433.5 119,433.5 118,433.5C 114.348,437.412 109.848,439.912 104.5,441C 101.424,443.62 98.2576,446.12 95,448.5C 94.6667,448.167 94.3333,447.833 94,447.5C 93.0816,449.376 91.5816,450.376 89.5,450.5C 71.292,435.965 55.9587,418.965 43.5,399.5C 43.9382,399.565 44.2716,399.399 44.5,399C 42.841,396.156 40.841,393.656 38.5,391.5C 16.5442,356.967 3.54418,319.301 -0.5,278.5C -0.5,263.167 -0.5,247.833 -0.5,232.5C 1.69473,210.53 6.69473,189.196 14.5,168.5C 15.2674,167.828 15.9341,166.995 16.5,166C 16.2716,165.601 15.9382,165.435 15.5,165.5C 24.2473,141.324 36.5806,119.324 52.5,99.5C 53.9063,99.0269 54.573,98.0269 54.5,96.5C 66.8333,80.8333 80.8333,66.8333 96.5,54.5C 96.4346,54.9382 96.6012,55.2716 97,55.5C 97.9025,54.2986 99.0692,53.4652 100.5,53C 100.272,52.6012 99.9382,52.4346 99.5,52.5C 99.8333,51.5 100.5,50.8333 101.5,50.5C 103.345,50.9216 105.012,50.0883 106.5,48C 106.272,47.6012 105.938,47.4346 105.5,47.5C 118.473,37.6708 132.473,29.3375 147.5,22.5C 148.962,23.4709 150.295,23.1376 151.5,21.5C 177.279,9.63872 204.279,2.30538 232.5,-0.5 Z"/></g>
<g><path style="opacity:0.855" fill="#14e1fe" d="M 151.5,21.5 C 150.295,23.1376 148.962,23.4709 147.5,22.5C 148.708,21.7659 150.041,21.4326 151.5,21.5 Z"/></g>
<g><path style="opacity:0.996" fill="#25a1ff" d="M 105.5,47.5 C 105.938,47.4346 106.272,47.6012 106.5,48C 105.012,50.0883 103.345,50.9216 101.5,50.5C 102.795,49.5116 104.128,48.5116 105.5,47.5 Z"/></g>
<g><path style="opacity:0.737" fill="#1bc2fe" d="M 99.5,52.5 C 99.9382,52.4346 100.272,52.6012 100.5,53C 99.0692,53.4652 97.9025,54.2986 97,55.5C 96.6012,55.2716 96.4346,54.9382 96.5,54.5C 96.9731,53.0937 97.9731,52.427 99.5,52.5 Z"/></g>
<g><path style="opacity:0.997" fill="#fefeff" d="M 419.5,452.5 C 378.6,486.366 331.6,506.033 278.5,511.5C 263.167,511.5 247.833,511.5 232.5,511.5C 178.286,506.108 130.619,485.775 89.5,450.5C 91.5816,450.376 93.0816,449.376 94,447.5C 94.3333,447.833 94.6667,448.167 95,448.5C 98.2576,446.12 101.424,443.62 104.5,441C 109.848,439.912 114.348,437.412 118,433.5C 119,433.5 120,433.5 121,433.5C 122.333,432.833 123.333,431.833 124,430.5C 124.333,430.833 124.667,431.167 125,431.5C 125.317,429.699 125.984,429.366 127,430.5C 131.889,427.496 136.222,424.496 140,421.5C 141,421.5 142,421.5 143,421.5C 147.856,418.08 152.522,415.08 157,412.5C 157.333,412.833 157.667,413.167 158,413.5C 158.419,412.328 159.085,411.328 160,410.5C 161.749,411.299 163.082,410.632 164,408.5C 165.749,409.299 167.082,408.632 168,406.5C 168.333,406.833 168.667,407.167 169,407.5C 169.442,405.321 170.442,404.655 172,405.5C 174.724,404.312 177.057,402.645 179,400.5C 180.558,401.345 181.558,400.679 182,398.5C 182.667,399.833 183.333,399.833 184,398.5C 184.483,397.552 184.649,396.552 184.5,395.5C 186.903,395.607 188.736,394.607 190,392.5C 191.192,389.114 192.692,385.947 194.5,383C 194.167,382.667 193.833,382.333 193.5,382C 194.308,381.692 194.975,381.192 195.5,380.5C 196.728,367.139 196.728,353.972 195.5,341C 192.298,336.255 188.631,331.922 184.5,328C 184.5,327 184.5,326 184.5,325C 180.9,318.53 176.9,311.864 172.5,305C 172.957,304.586 173.291,304.086 173.5,303.5C 171.178,302.064 170.511,300.23 171.5,298C 168.627,292.584 166.294,286.917 164.5,281C 165.517,279.951 165.684,278.784 165,277.5C 163.391,278.15 161.891,277.65 160.5,276C 160.833,275.667 161.167,275.333 161.5,275C 157.965,271.369 154.965,267.369 152.5,263C 153.739,248.466 153.739,233.799 152.5,219C 154.35,217.155 154.683,215.155 153.5,213C 156.181,210.701 158.181,208.367 159.5,206C 159.167,205.667 158.833,205.333 158.5,205C 159.672,204.581 160.672,203.915 161.5,203C 160.61,183.323 160.277,163.823 160.5,144.5C 161.727,141.601 162.061,138.767 161.5,136C 162.838,132.65 164.171,129.316 165.5,126C 165.043,125.586 164.709,125.086 164.5,124.5C 171.327,109.569 181.16,97.9024 194,89.5C 194.333,89.8333 194.667,90.1667 195,90.5C 198.512,88.7464 201.845,86.7464 205,84.5C 206.016,85.6341 206.683,85.3008 207,83.5C 208.406,84.6682 209.572,84.3348 210.5,82.5C 211.842,83.9023 212.676,83.5689 213,81.5C 215,81.5 217,81.5 219,81.5C 219.333,80.8333 219.667,80.1667 220,79.5C 221.398,80.0509 222.732,80.3842 224,80.5C 224.333,79.8333 224.667,79.1667 225,78.5C 228.785,78.263 232.618,78.263 236.5,78.5C 238.029,78.4712 239.196,77.8045 240,76.5C 250.412,76.5786 260.745,76.5786 271,76.5C 271.956,77.8941 273.289,78.5607 275,78.5C 278.214,78.2618 281.381,78.2618 284.5,78.5C 285.797,80.3668 287.297,80.7002 289,79.5C 290.555,81.1458 292.221,81.4791 294,80.5C 297.195,82.8356 300.862,84.5023 305,85.5C 305.333,85.1667 305.667,84.8333 306,84.5C 306.317,86.3008 306.984,86.6341 308,85.5C 310.76,88.0622 313.76,89.3955 317,89.5C 320.182,93.1783 324.015,96.0116 328.5,98C 331.578,102.636 335.245,106.802 339.5,110.5C 340.641,111.425 340.641,112.259 339.5,113C 341.301,113.317 341.634,113.984 340.5,115C 342.864,116.012 344.198,117.345 344.5,119C 344.043,119.414 343.709,119.914 343.5,120.5C 345.937,125.478 347.937,130.311 349.5,135C 348.289,138.488 348.623,142.155 350.5,146C 350.78,164.965 350.446,183.965 349.5,203C 352.707,204.135 354.041,206.135 353.5,209C 355.527,212.352 357.194,215.185 358.5,217.5C 357.195,232.658 357.195,247.492 358.5,262C 357.833,262.333 357.167,262.667 356.5,263C 356.835,264.503 356.835,265.836 356.5,267C 353.731,270.504 350.565,274.337 347,278.5C 346.667,278.167 346.333,277.833 346,277.5C 343.75,278.708 341.583,280.041 339.5,281.5C 338.289,282.72 338.289,283.887 339.5,285C 337.699,285.317 337.366,285.984 338.5,287C 336.111,290.852 334.111,294.852 332.5,299C 332.833,299.333 333.167,299.667 333.5,300C 331.992,301.507 330.659,303.173 329.5,305C 329.957,305.414 330.291,305.914 330.5,306.5C 327.911,311.726 324.911,316.56 321.5,321C 321.833,321.333 322.167,321.667 322.5,322C 321.421,322.956 320.255,323.789 319,324.5C 318.654,326.848 317.487,328.681 315.5,330C 315.833,330.333 316.167,330.667 316.5,331C 313.465,332.701 311.132,335.035 309.5,338C 309.833,338.333 310.167,338.667 310.5,339C 308.667,339.5 307.5,340.667 307,342.5C 306.072,356.556 306.405,370.556 308,384.5C 310.177,388.131 312.511,392.131 315,396.5C 318.604,397.297 321.271,399.297 323,402.5C 324.84,401.167 325.34,401.334 324.5,403C 351.441,416.105 378.608,429.605 406,443.5C 406.333,443.167 406.667,442.833 407,442.5C 411.885,445.734 416.052,449.067 419.5,452.5 Z"/></g>
<g><path style="opacity:0.624" fill="#1bdfff" d="M 54.5,96.5 C 54.573,98.0269 53.9063,99.0269 52.5,99.5C 52.427,97.9731 53.0937,96.9731 54.5,96.5 Z"/></g>
<g><path style="opacity:0.89" fill="#13d6ff" d="M 494.5,162.5 C 495.167,163.833 495.833,165.167 496.5,166.5C 494.879,166.213 493.879,165.213 493.5,163.5C 493.624,162.893 493.957,162.56 494.5,162.5 Z"/></g>
<g><path style="opacity:0.659" fill="#0ed1ff" d="M 15.5,165.5 C 15.9382,165.435 16.2716,165.601 16.5,166C 15.9341,166.995 15.2674,167.828 14.5,168.5C 14.2627,167.209 14.596,166.209 15.5,165.5 Z"/></g>
<g><path style="opacity:0.914" fill="#0fcdff" d="M 510.5,285.5 C 510.167,286.833 509.833,288.167 509.5,289.5C 508.147,287.872 508.481,286.538 510.5,285.5 Z"/></g>
<g><path style="opacity:0.204" fill="#2fb5ff" d="M 38.5,391.5 C 40.841,393.656 42.841,396.156 44.5,399C 44.2716,399.399 43.9382,399.565 43.5,399.5C 41.336,397.178 39.6693,394.511 38.5,391.5 Z"/></g>
<g><path style="opacity:0.051" fill="#10d4fe" d="M 454.5,416.5 C 454.573,418.027 453.906,419.027 452.5,419.5C 452.626,417.378 453.293,416.378 454.5,416.5 Z"/></g>
<g><path style="opacity:0.404" fill="#1be1fe" d="M 438.5,434.5 C 438.167,435.5 437.5,436.167 436.5,436.5C 435.262,436.19 435.262,435.69 436.5,435C 437.094,434.536 437.761,434.369 438.5,434.5 Z"/></g>
<g><path style="opacity:0.039" fill="#17c7ff" d="M 427.5,445.5 C 426.833,446.833 425.833,447.833 424.5,448.5C 424.5,446.5 425.5,445.5 427.5,445.5 Z"/></g>
</svg>
